<svg width="24" height="24" viewBox="0 0 24 24" fill="none" xmlns="http://www.w3.org/2000/svg">
<path d="M8.67039 23.0999H15.3304C20.8804 23.0999 23.1004 20.8799 23.1004 15.3299V8.6699C23.1004 3.1199 20.8804 0.899902 15.3304 0.899902H8.67039C3.12039 0.899902 0.900391 3.1199 0.900391 8.6699V15.3299C0.900391 20.8799 3.12039 23.0999 8.67039 23.0999Z" stroke="#646673" stroke-width="1.5" stroke-linecap="round" stroke-linejoin="round"/>
<path d="M8.66922 9.77984C9.89529 9.77984 10.8892 8.78592 10.8892 7.55984C10.8892 6.33377 9.89529 5.33984 8.66922 5.33984C7.44315 5.33984 6.44922 6.33377 6.44922 7.55984C6.44922 8.78592 7.44315 9.77984 8.66922 9.77984Z" stroke="#646673" stroke-width="1.5" stroke-linecap="round" stroke-linejoin="round"/>
<path d="M1.64453 19.7143L7.11683 16.0402C7.99373 15.4519 9.25913 15.5185 10.0472 16.1956L10.4135 16.5175C11.2793 17.2612 12.6779 17.2612 13.5437 16.5175L18.1613 12.5548C19.0271 11.8111 20.4257 11.8111 21.2915 12.5548L23.1008 14.1088" stroke="#646673" stroke-width="1.5" stroke-linecap="round" stroke-linejoin="round"/>
</svg>
