<svg width="250" height="250" viewBox="0 0 250 250" fill="none" xmlns="http://www.w3.org/2000/svg">
<path d="M114.584 208.333H67.7087C51.91 208.333 38.4135 202.864 27.2191 191.927C16.0177 180.989 10.417 167.621 10.417 151.823C10.417 138.281 14.4969 126.215 22.6566 115.625C30.8163 105.035 41.4934 98.2637 54.6878 95.3123C59.0281 79.3401 67.7087 66.4061 80.7295 56.5103C93.7503 46.6144 108.507 41.6665 125 41.6665C145.313 41.6665 162.542 48.7394 176.688 62.8853C190.841 77.038 197.917 94.2707 197.917 114.583C209.896 115.972 219.837 121.135 227.74 130.073C235.636 139.017 239.584 149.479 239.584 161.458C239.584 174.479 235.028 185.548 225.917 194.667C216.799 203.778 205.729 208.333 192.709 208.333H135.417V133.854L152.084 150L166.667 135.417L125 93.7498L83.3337 135.417L97.917 150L114.584 133.854V208.333Z" fill="#DDDDDD"/>
</svg>
