<svg width="74" height="74" viewBox="0 0 74 74" fill="none" xmlns="http://www.w3.org/2000/svg">
<path d="M18.5 12.3332V24.6665H55.5V12.3332H61.6882C63.3779 12.3332 64.75 13.7053 64.75 15.3949V64.7714C64.7492 65.5832 64.4263 66.3615 63.8523 66.9355C63.2783 67.5095 62.5 67.8324 61.6882 67.8332H12.3117C11.5 67.8324 10.7217 67.5095 10.1477 66.9355C9.57365 66.3615 9.25082 65.5832 9.25 64.7714V15.3949C9.25 13.7053 10.6221 12.3332 12.3117 12.3332H18.5ZM27.75 52.4165H21.5833V58.5832H27.75V52.4165ZM27.75 43.1665H21.5833V49.3332H27.75V43.1665ZM27.75 33.9165H21.5833V40.0832H27.75V33.9165ZM49.3333 6.1665V18.4998H24.6667V6.1665H49.3333Z" fill="#007DB9"/>
</svg>
