<svg width="46" height="56" viewBox="0 0 46 56" fill="none" xmlns="http://www.w3.org/2000/svg">
<path d="M43.7567 15.8395V48.655C43.7567 51.9418 41.0919 54.6066 37.8051 54.6066H8.15466C4.86786 54.6066 2.20312 51.9418 2.20312 48.655V7.3446C2.20312 4.0578 4.86786 1.39307 8.15466 1.39307H30.0002V11.2539C30.0002 13.7969 32.0561 15.8528 34.5991 15.8528H43.7567V15.8395Z" fill="#22C1CB"/>
<path d="M30 1.39307L43.7565 15.8532H34.5989C32.0559 15.8532 30 13.7969 30 11.2539V1.39307Z" fill="#22C1CB"/>
<path d="M30.9745 0.4328C30.7178 0.162354 30.3661 0 30.0009 0H8.15533C4.12427 0 0.796875 3.31415 0.796875 7.34479V48.6552C0.796875 52.6859 4.12427 56 8.15533 56H37.8058C41.8364 56 45.1638 52.6859 45.1638 48.6552V15.8397C45.1638 15.4881 45.0015 15.1497 44.7716 14.8929L30.9745 0.4328ZM31.3672 4.7749L40.6055 14.4734H34.5997C32.8143 14.4734 31.3672 13.0396 31.3672 11.2404V4.7749ZM37.8058 53.2947H8.15533C5.62604 53.2947 3.5022 51.1982 3.5022 48.6552V7.34479C3.5022 4.81549 5.61237 2.70532 8.15533 2.70532H28.6619V11.2404C28.6619 14.5276 31.3129 17.1787 34.5997 17.1787H42.4589V48.6552C42.4589 51.1982 40.3488 53.2947 37.8058 53.2947Z" fill="#1E293B"/>
<path d="M34.1134 41.4224H11.8488C11.1049 41.4224 10.4961 42.0308 10.4961 42.775C10.4961 43.5189 11.1049 44.1277 11.8488 44.1277H34.1271C34.8709 44.1277 35.4797 43.5189 35.4797 42.775C35.4797 42.0308 34.8709 41.4224 34.1134 41.4224Z" fill="#1E293B"/>
<path d="M34.1212 34.4512H11.8566C11.1127 34.4512 10.5039 35.0596 10.5039 35.8038C10.5039 36.5477 11.1127 37.1565 11.8566 37.1565H34.1349C34.8787 37.1565 35.4875 36.5477 35.4875 35.8038C35.4875 35.0596 34.8787 34.4512 34.1212 34.4512Z" fill="#1E293B"/>
<path d="M26.4782 27.4805H11.4188C10.9157 27.4805 10.5039 28.0893 10.5039 28.834C10.5039 29.5783 10.9157 30.1875 11.4188 30.1875H26.4874C26.9905 30.1875 27.4023 29.5783 27.4023 28.834C27.4023 28.0893 26.9905 27.4805 26.4782 27.4805Z" fill="#1E293B"/>
</svg>
