<svg width="40" height="40" viewBox="0 0 40 40" fill="none" xmlns="http://www.w3.org/2000/svg">
<circle cx="20" cy="20" r="20" fill="#D9D9D9"/>
<path fill-rule="evenodd" clip-rule="evenodd" d="M30.4231 11.7569C30.5006 11.6794 30.562 11.5874 30.604 11.4862C30.6459 11.385 30.6675 11.2765 30.6675 11.1669C30.6675 11.0573 30.6459 10.9488 30.604 10.8476C30.562 10.7464 30.5006 10.6544 30.4231 10.5769C30.3456 10.4994 30.2536 10.438 30.1524 10.396C30.0512 10.3541 29.9427 10.3325 29.8331 10.3325C29.7235 10.3325 29.615 10.3541 29.5138 10.396C29.4125 10.438 29.3206 10.4994 29.2431 10.5769L21.4998 18.3219L13.7564 10.5769C13.6789 10.4994 13.587 10.438 13.4857 10.396C13.3845 10.3541 13.276 10.3325 13.1664 10.3325C13.0568 10.3325 12.9483 10.3541 12.8471 10.396C12.7459 10.438 12.6539 10.4994 12.5764 10.5769C12.4989 10.6544 12.4375 10.7464 12.3955 10.8476C12.3536 10.9488 12.332 11.0573 12.332 11.1669C12.332 11.2765 12.3536 11.385 12.3955 11.4862C12.4375 11.5874 12.4989 11.6794 12.5764 11.7569L20.3214 19.5002L12.5764 27.2436C12.4199 27.4 12.332 27.6123 12.332 27.8336C12.332 28.0549 12.4199 28.2671 12.5764 28.4236C12.7329 28.58 12.9451 28.668 13.1664 28.668C13.3877 28.668 13.5999 28.58 13.7564 28.4236L21.4998 20.6786L29.2431 28.4236C29.3996 28.58 29.6118 28.668 29.8331 28.668C30.0544 28.668 30.2666 28.58 30.4231 28.4236C30.5796 28.2671 30.6675 28.0549 30.6675 27.8336C30.6675 27.6123 30.5796 27.4 30.4231 27.2436L22.6781 19.5002L30.4231 11.7569Z" fill="black"/>
</svg>
