<svg width="25" height="24" viewBox="0 0 25 24" fill="none" xmlns="http://www.w3.org/2000/svg">
<g clip-path="url(#clip0_1599_2876)">
<path d="M14.1616 4.9201H16.8109L12.7559 0.654297V3.50891C12.7559 4.28216 13.383 4.9201 14.1616 4.9201Z" fill="#22C1CB"/>
<path d="M16.8593 11.0781C13.2964 11.0781 10.3984 13.9759 10.3984 17.539C10.3984 21.1019 13.2964 23.9999 16.8593 23.9999C20.4223 23.9999 23.3204 21.1019 23.3204 17.539C23.3204 13.9759 20.4223 11.0781 16.8593 11.0781ZM20.3304 18.0905L17.1622 21.4911C17.081 21.5777 16.9675 21.6264 16.8432 21.6264C16.7189 21.6264 16.6106 21.5777 16.5295 21.4911L13.3668 18.0905C13.2045 17.9175 13.2153 17.6417 13.3884 17.4795C13.5614 17.3173 13.8425 17.3281 14.0047 17.5011L16.4268 20.0962V13.9164C16.4268 13.6786 16.6214 13.4839 16.8593 13.4839C17.0973 13.4839 17.292 13.6786 17.292 13.9164V20.0962L19.7033 17.5011C19.8655 17.3281 20.1358 17.3173 20.3088 17.4795C20.4872 17.6417 20.4927 17.912 20.3304 18.0905Z" fill="#22C1CB"/>
<path d="M9.76567 15.6791H5.06719C4.82934 15.6791 4.6347 15.4847 4.6347 15.2466C4.6347 15.0088 4.82934 14.8141 5.06719 14.8141H10.0522C10.3278 14.1114 10.6955 13.5165 11.1498 12.9217H5.06719C4.82934 12.9217 4.6347 12.7273 4.6347 12.4892C4.6347 12.2514 4.82934 12.0567 5.06719 12.0567H11.9715C13.269 10.9213 14.9884 10.1969 16.8645 10.1969C17.0428 10.1969 17.1889 10.2131 17.4052 10.2294V5.78503H14.1611C12.9068 5.78503 11.8904 4.75781 11.8904 3.50884V0H3.59668C2.52606 0 1.67188 0.875792 1.67188 1.95172V18.4528C1.67188 19.5287 2.52606 20.3829 3.59668 20.3829H10.1116C9.73857 19.5179 9.53313 18.5447 9.53313 17.5283C9.52764 16.8904 9.61425 16.2738 9.76567 15.6791ZM5.06719 9.35338H10.5442C10.7821 9.35338 10.9767 9.54802 10.9767 9.78606C10.9767 10.0239 10.7821 10.2186 10.5442 10.2186H5.06719C4.82934 10.2186 4.6347 10.0239 4.6347 9.78606C4.6347 9.54802 4.82934 9.35338 5.06719 9.35338Z" fill="#22C1CB"/>
</g>
<defs>
<clipPath id="clip0_1599_2876">
<rect width="24" height="24" fill="white" transform="translate(0.5)"/>
</clipPath>
</defs>
</svg>
