<svg width="19" height="18" viewBox="0 0 19 18" fill="none" xmlns="http://www.w3.org/2000/svg">
<path d="M1.26074 17.4941C1.38965 17.6159 1.53646 17.6982 1.70117 17.7412C1.86589 17.7842 2.0306 17.7842 2.19531 17.7412C2.36003 17.6982 2.50326 17.6159 2.625 17.4941L9.5 10.6191L16.375 17.4941C16.4967 17.6159 16.64 17.6982 16.8047 17.7412C16.9694 17.7842 17.1341 17.7842 17.2988 17.7412C17.4707 17.7054 17.6175 17.623 17.7393 17.4941C17.861 17.3724 17.9398 17.2292 17.9756 17.0645C18.0186 16.8997 18.0186 16.735 17.9756 16.5703C17.9398 16.4056 17.861 16.2624 17.7393 16.1406L10.8643 9.25488L17.7393 2.37988C17.861 2.25814 17.9434 2.11491 17.9863 1.9502C18.0293 1.78548 18.0293 1.62077 17.9863 1.45605C17.9434 1.29134 17.861 1.14811 17.7393 1.02637C17.6104 0.897461 17.4635 0.815104 17.2988 0.779297C17.1341 0.736328 16.9694 0.736328 16.8047 0.779297C16.64 0.815104 16.4967 0.897461 16.375 1.02637L9.5 7.90137L2.625 1.02637C2.50326 0.897461 2.35645 0.815104 2.18457 0.779297C2.01986 0.736328 1.85514 0.736328 1.69043 0.779297C1.52572 0.815104 1.38249 0.897461 1.26074 1.02637C1.139 1.14811 1.05664 1.29134 1.01367 1.45605C0.977865 1.62077 0.977865 1.78548 1.01367 1.9502C1.05664 2.11491 1.139 2.25814 1.26074 2.37988L8.13574 9.25488L1.26074 16.1406C1.139 16.2624 1.05664 16.4056 1.01367 16.5703C0.970703 16.735 0.967122 16.8997 1.00293 17.0645C1.0459 17.2292 1.13184 17.3724 1.26074 17.4941Z" fill="#646673"/>
</svg>
